<svg xmlns="http://www.w3.org/2000/svg" viewBox="0 0 1280 720" width="1280" height="720">
  <defs>
    <linearGradient id="chartGrad" x1="0" y1="0" x2="0" y2="1">
      <stop offset="0%" stop-color="#22c55e" stop-opacity="0.3"/>
      <stop offset="100%" stop-color="#22c55e" stop-opacity="0.02"/>
    </linearGradient>
    <linearGradient id="bgGrad" x1="0" y1="0" x2="0" y2="1">
      <stop offset="0%" stop-color="#0f1117"/>
      <stop offset="100%" stop-color="#080b10"/>
    </linearGradient>
    <linearGradient id="sidebarGrad" x1="0" y1="0" x2="1" y2="0">
      <stop offset="0%" stop-color="#0d1117"/>
      <stop offset="100%" stop-color="#111620"/>
    </linearGradient>
    <clipPath id="chartClip">
      <rect x="300" y="130" width="720" height="280"/>
    </clipPath>
    <filter id="glow">
      <feGaussianBlur stdDeviation="2" result="coloredBlur"/>
      <feMerge><feMergeNode in="coloredBlur"/><feMergeNode in="SourceGraphic"/></feMerge>
    </filter>
  </defs>

  <!-- Background -->
  <rect width="1280" height="720" fill="url(#bgGrad)"/>

  <!-- Top navigation bar -->
  <rect width="1280" height="52" fill="#0d1117"/>
  <rect y="52" width="1280" height="1" fill="#1e2530"/>

  <!-- Logo -->
  <circle cx="28" cy="26" r="10" fill="#22c55e" opacity="0.9"/>
  <text x="46" y="31" font-family="Inter, system-ui, sans-serif" font-size="15" font-weight="700" fill="#f0f6fc" letter-spacing="-0.3">StockSentinel</text>

  <!-- Nav items -->
  <text x="200" y="31" font-family="Inter, system-ui, sans-serif" font-size="13" fill="#22c55e">Dashboard</text>
  <text x="280" y="31" font-family="Inter, system-ui, sans-serif" font-size="13" fill="#6e7681">Portfolio</text>
  <text x="348" y="31" font-family="Inter, system-ui, sans-serif" font-size="13" fill="#6e7681">Alerts</text>
  <text x="400" y="31" font-family="Inter, system-ui, sans-serif" font-size="13" fill="#6e7681">History</text>

  <!-- Currency toggle -->
  <rect x="1140" y="14" width="64" height="24" rx="12" fill="#1e2530"/>
  <rect x="1140" y="14" width="32" height="24" rx="12" fill="#22c55e"/>
  <text x="1152" y="30" font-family="Inter, system-ui, sans-serif" font-size="11" font-weight="600" fill="#fff">USD</text>
  <text x="1187" y="30" font-family="Inter, system-ui, sans-serif" font-size="11" fill="#6e7681">EUR</text>

  <!-- User avatar -->
  <circle cx="1252" cy="26" r="14" fill="#1e2530"/>
  <text x="1252" y="31" font-family="Inter, system-ui, sans-serif" font-size="11" font-weight="600" fill="#22c55e" text-anchor="middle">LS</text>

  <!-- ─── LEFT SIDEBAR — Watchlist ─── -->
  <rect x="0" y="53" width="240" height="667" fill="url(#sidebarGrad)"/>
  <rect x="240" y="53" width="1" height="667" fill="#1e2530"/>

  <text x="16" y="82" font-family="Inter, system-ui, sans-serif" font-size="11" font-weight="600" fill="#6e7681" letter-spacing="0.8">WATCHLIST</text>

  <!-- TSLA — selected -->
  <rect x="0" y="90" width="240" height="58" fill="#161b22"/>
  <rect x="0" y="90" width="3" height="58" fill="#22c55e"/>
  <text x="16" y="111" font-family="Inter, system-ui, sans-serif" font-size="14" font-weight="700" fill="#f0f6fc">TSLA</text>
  <rect x="16" y="118" width="38" height="14" rx="7" fill="#1a3a2a"/>
  <text x="35" y="129" font-family="Inter, system-ui, sans-serif" font-size="9" font-weight="600" fill="#22c55e" text-anchor="middle">HOLDING</text>
  <text x="210" y="111" font-family="Inter, system-ui, sans-serif" font-size="14" font-weight="600" fill="#f0f6fc" text-anchor="end">$400.49</text>
  <text x="210" y="129" font-family="Inter, system-ui, sans-serif" font-size="11" fill="#22c55e" text-anchor="end">+1.04%</text>

  <!-- AAPL -->
  <rect x="0" y="148" width="240" height="58" fill="transparent"/>
  <text x="16" y="169" font-family="Inter, system-ui, sans-serif" font-size="14" font-weight="700" fill="#c9d1d9">AAPL</text>
  <rect x="16" y="176" width="42" height="14" rx="7" fill="#1e2530"/>
  <text x="37" y="187" font-family="Inter, system-ui, sans-serif" font-size="9" font-weight="600" fill="#6e7681" text-anchor="middle">WATCHING</text>
  <text x="210" y="169" font-family="Inter, system-ui, sans-serif" font-size="14" font-weight="600" fill="#c9d1d9" text-anchor="end">$214.29</text>
  <text x="210" y="187" font-family="Inter, system-ui, sans-serif" font-size="11" fill="#22c55e" text-anchor="end">+0.61%</text>

  <rect x="16" y="206" width="208" height="1" fill="#1e2530"/>

  <!-- NVDA -->
  <rect x="0" y="207" width="240" height="58" fill="transparent"/>
  <text x="16" y="228" font-family="Inter, system-ui, sans-serif" font-size="14" font-weight="700" fill="#c9d1d9">NVDA</text>
  <rect x="16" y="235" width="42" height="14" rx="7" fill="#1e2530"/>
  <text x="37" y="246" font-family="Inter, system-ui, sans-serif" font-size="9" font-weight="600" fill="#6e7681" text-anchor="middle">WATCHING</text>
  <text x="210" y="228" font-family="Inter, system-ui, sans-serif" font-size="14" font-weight="600" fill="#c9d1d9" text-anchor="end">$135.58</text>
  <text x="210" y="246" font-family="Inter, system-ui, sans-serif" font-size="11" fill="#f85149" text-anchor="end">−2.31%</text>

  <rect x="16" y="265" width="208" height="1" fill="#1e2530"/>

  <!-- MSFT -->
  <rect x="0" y="266" width="240" height="58" fill="transparent"/>
  <text x="16" y="287" font-family="Inter, system-ui, sans-serif" font-size="14" font-weight="700" fill="#c9d1d9">MSFT</text>
  <rect x="16" y="294" width="38" height="14" rx="7" fill="#1a3a2a"/>
  <text x="35" y="305" font-family="Inter, system-ui, sans-serif" font-size="9" font-weight="600" fill="#22c55e" text-anchor="middle">HOLDING</text>
  <text x="210" y="287" font-family="Inter, system-ui, sans-serif" font-size="14" font-weight="600" fill="#c9d1d9" text-anchor="end">$472.81</text>
  <text x="210" y="305" font-family="Inter, system-ui, sans-serif" font-size="11" fill="#22c55e" text-anchor="end">+0.38%</text>

  <rect x="16" y="324" width="208" height="1" fill="#1e2530"/>

  <!-- Add ticker button -->
  <rect x="12" y="336" width="216" height="34" rx="8" fill="#161b22" stroke="#22c55e" stroke-width="1" stroke-opacity="0.4"/>
  <text x="120" y="358" font-family="Inter, system-ui, sans-serif" font-size="12" fill="#22c55e" text-anchor="middle">+ Add ticker</text>

  <!-- P&L Summary -->
  <rect x="12" y="560" width="216" height="110" rx="8" fill="#161b22"/>
  <text x="24" y="582" font-family="Inter, system-ui, sans-serif" font-size="11" font-weight="600" fill="#6e7681" letter-spacing="0.5">PORTFOLIO P&amp;L</text>
  <text x="24" y="608" font-family="Inter, system-ui, sans-serif" font-size="22" font-weight="700" fill="#22c55e">+$4,821.40</text>
  <text x="24" y="626" font-family="Inter, system-ui, sans-serif" font-size="12" fill="#6e7681">Total gain across 2 positions</text>
  <rect x="24" y="638" width="192" height="1" fill="#1e2530"/>
  <text x="24" y="656" font-family="Inter, system-ui, sans-serif" font-size="11" fill="#6e7681">TSLA</text>
  <text x="216" y="656" font-family="Inter, system-ui, sans-serif" font-size="11" fill="#22c55e" text-anchor="end">+$3,204.00 · +18.2%</text>

  <!-- ─── MAIN CHART AREA ─── -->
  <!-- Ticker header -->
  <text x="316" y="90" font-family="Inter, system-ui, sans-serif" font-size="26" font-weight="800" fill="#f0f6fc">Tesla, Inc.</text>
  <text x="490" y="90" font-family="Inter, system-ui, sans-serif" font-size="14" fill="#6e7681" dominant-baseline="middle" y="88">TSLA · NASDAQ</text>
  <text x="316" y="116" font-family="Inter, system-ui, sans-serif" font-size="32" font-weight="700" fill="#f0f6fc">$400.49</text>
  <text x="420" y="116" font-family="Inter, system-ui, sans-serif" font-size="16" font-weight="600" fill="#22c55e">+$4.11  +1.04%</text>
  <text x="534" y="116" font-family="Inter, system-ui, sans-serif" font-size="13" fill="#6e7681">At close · Jun 18</text>

  <!-- Timeframe selector -->
  <rect x="316" y="128" width="36" height="22" rx="5" fill="#22c55e"/>
  <text x="334" y="143" font-family="Inter, system-ui, sans-serif" font-size="11" font-weight="700" fill="#000" text-anchor="middle">1D</text>
  <text x="370" y="143" font-family="Inter, system-ui, sans-serif" font-size="11" fill="#6e7681" text-anchor="middle">5D</text>
  <text x="400" y="143" font-family="Inter, system-ui, sans-serif" font-size="11" fill="#6e7681" text-anchor="middle">1M</text>
  <text x="432" y="143" font-family="Inter, system-ui, sans-serif" font-size="11" fill="#6e7681" text-anchor="middle">6M</text>
  <text x="464" y="143" font-family="Inter, system-ui, sans-serif" font-size="11" fill="#6e7681" text-anchor="middle">YTD</text>
  <text x="496" y="143" font-family="Inter, system-ui, sans-serif" font-size="11" fill="#6e7681" text-anchor="middle">1Y</text>
  <text x="524" y="143" font-family="Inter, system-ui, sans-serif" font-size="11" fill="#6e7681" text-anchor="middle">5Y</text>
  <text x="552" y="143" font-family="Inter, system-ui, sans-serif" font-size="11" fill="#6e7681" text-anchor="middle">All</text>

  <!-- Chart background -->
  <rect x="300" y="157" width="736" height="300" rx="10" fill="#0d1117" stroke="#1e2530" stroke-width="1"/>

  <!-- Y-axis labels -->
  <text x="312" y="175" font-family="JetBrains Mono, monospace" font-size="10" fill="#3d444d">402</text>
  <text x="312" y="225" font-family="JetBrains Mono, monospace" font-size="10" fill="#3d444d">400</text>
  <text x="312" y="275" font-family="JetBrains Mono, monospace" font-size="10" fill="#3d444d">398</text>
  <text x="312" y="325" font-family="JetBrains Mono, monospace" font-size="10" fill="#3d444d">396</text>
  <text x="312" y="375" font-family="JetBrains Mono, monospace" font-size="10" fill="#3d444d">394</text>
  <text x="312" y="425" font-family="JetBrains Mono, monospace" font-size="10" fill="#3d444d">392</text>

  <!-- Horizontal grid lines -->
  <line x1="336" y1="170" x2="1022" y2="170" stroke="#1e2530" stroke-width="0.5" stroke-dasharray="4,4"/>
  <line x1="336" y1="220" x2="1022" y2="220" stroke="#1e2530" stroke-width="0.5" stroke-dasharray="4,4"/>
  <line x1="336" y1="270" x2="1022" y2="270" stroke="#1e2530" stroke-width="0.5" stroke-dasharray="4,4"/>
  <line x1="336" y1="320" x2="1022" y2="320" stroke="#1e2530" stroke-width="0.5" stroke-dasharray="4,4"/>
  <line x1="336" y1="370" x2="1022" y2="370" stroke="#1e2530" stroke-width="0.5" stroke-dasharray="4,4"/>
  <line x1="336" y1="420" x2="1022" y2="420" stroke="#1e2530" stroke-width="0.5" stroke-dasharray="4,4"/>

  <!-- X-axis time labels -->
  <text x="360" y="448" font-family="JetBrains Mono, monospace" font-size="10" fill="#3d444d">9:30</text>
  <text x="490" y="448" font-family="JetBrains Mono, monospace" font-size="10" fill="#3d444d">11:00</text>
  <text x="620" y="448" font-family="JetBrains Mono, monospace" font-size="10" fill="#3d444d">12:30</text>
  <text x="750" y="448" font-family="JetBrains Mono, monospace" font-size="10" fill="#3d444d">14:00</text>
  <text x="880" y="448" font-family="JetBrains Mono, monospace" font-size="10" fill="#3d444d">15:30</text>
  <text x="980" y="448" font-family="JetBrains Mono, monospace" font-size="10" fill="#3d444d">Close</text>

  <!-- Chart area fill -->
  <clipPath id="clip1"><rect x="336" y="160" width="686" height="270"/></clipPath>
  <polygon clip-path="url(#clip1)"
    points="336,310 370,298 400,312 430,295 460,308 490,290 520,302 550,285 575,278 600,292 625,268 650,275 675,260 700,272 720,258 745,248 770,262 795,245 820,255 845,240 870,252 895,238 920,248 950,235 980,242 1005,230 1022,235 1022,430 336,430"
    fill="url(#chartGrad)"/>

  <!-- Chart line -->
  <polyline clip-path="url(#clip1)"
    points="336,310 370,298 400,312 430,295 460,308 490,290 520,302 550,285 575,278 600,292 625,268 650,275 675,260 700,272 720,258 745,248 770,262 795,245 820,255 845,240 870,252 895,238 920,248 950,235 980,242 1005,230 1022,235"
    fill="none" stroke="#22c55e" stroke-width="2" filter="url(#glow)"/>

  <!-- Current price dot -->
  <circle cx="1022" cy="235" r="4" fill="#22c55e" filter="url(#glow)"/>
  <rect x="1026" y="227" width="52" height="18" rx="4" fill="#22c55e"/>
  <text x="1052" y="240" font-family="JetBrains Mono, monospace" font-size="11" font-weight="700" fill="#000" text-anchor="middle">400.49</text>

  <!-- Alert line -->
  <line x1="336" y1="310" x2="1022" y2="310" stroke="#f85149" stroke-width="1" stroke-dasharray="6,3" opacity="0.6"/>
  <rect x="336" y="301" width="74" height="16" rx="3" fill="#2a1414"/>
  <text x="373" y="313" font-family="Inter, system-ui, sans-serif" font-size="9" fill="#f85149" text-anchor="middle">Alert: &lt; $390</text>

  <!-- ─── FINANCIALS PANEL ─── -->
  <rect x="1048" y="63" width="220" height="394" rx="10" fill="#0d1117" stroke="#1e2530" stroke-width="1"/>
  <text x="1064" y="88" font-family="Inter, system-ui, sans-serif" font-size="11" font-weight="600" fill="#6e7681" letter-spacing="0.8">KEY FINANCIALS</text>

  <!-- Financials rows -->
  <text x="1064" y="115" font-family="Inter, system-ui, sans-serif" font-size="11" fill="#6e7681">Market Cap</text>
  <text x="1252" y="115" font-family="Inter, system-ui, sans-serif" font-size="11" font-weight="600" fill="#c9d1d9" text-anchor="end">$1.504T</text>
  <line x1="1064" y1="122" x2="1252" y2="122" stroke="#1e2530" stroke-width="0.5"/>

  <text x="1064" y="140" font-family="Inter, system-ui, sans-serif" font-size="11" fill="#6e7681">P/E Ratio (TTM)</text>
  <text x="1252" y="140" font-family="Inter, system-ui, sans-serif" font-size="11" font-weight="600" fill="#c9d1d9" text-anchor="end">370.82</text>
  <line x1="1064" y1="147" x2="1252" y2="147" stroke="#1e2530" stroke-width="0.5"/>

  <text x="1064" y="165" font-family="Inter, system-ui, sans-serif" font-size="11" fill="#6e7681">EPS (TTM)</text>
  <text x="1252" y="165" font-family="Inter, system-ui, sans-serif" font-size="11" font-weight="600" fill="#c9d1d9" text-anchor="end">$1.08</text>
  <line x1="1064" y1="172" x2="1252" y2="172" stroke="#1e2530" stroke-width="0.5"/>

  <text x="1064" y="190" font-family="Inter, system-ui, sans-serif" font-size="11" fill="#6e7681">Beta (5Y)</text>
  <text x="1252" y="190" font-family="Inter, system-ui, sans-serif" font-size="11" font-weight="600" fill="#c9d1d9" text-anchor="end">1.80</text>
  <line x1="1064" y1="197" x2="1252" y2="197" stroke="#1e2530" stroke-width="0.5"/>

  <text x="1064" y="215" font-family="Inter, system-ui, sans-serif" font-size="11" fill="#6e7681">Volume</text>
  <text x="1252" y="215" font-family="Inter, system-ui, sans-serif" font-size="11" font-weight="600" fill="#c9d1d9" text-anchor="end">54.6M</text>
  <line x1="1064" y1="222" x2="1252" y2="222" stroke="#1e2530" stroke-width="0.5"/>

  <text x="1064" y="240" font-family="Inter, system-ui, sans-serif" font-size="11" fill="#6e7681">Avg. Volume</text>
  <text x="1252" y="240" font-family="Inter, system-ui, sans-serif" font-size="11" font-weight="600" fill="#c9d1d9" text-anchor="end">58.1M</text>
  <line x1="1064" y1="247" x2="1252" y2="247" stroke="#1e2530" stroke-width="0.5"/>

  <text x="1064" y="265" font-family="Inter, system-ui, sans-serif" font-size="11" fill="#6e7681">Day Range</text>
  <text x="1252" y="265" font-family="Inter, system-ui, sans-serif" font-size="11" font-weight="600" fill="#c9d1d9" text-anchor="end">384.70 – 402.52</text>
  <line x1="1064" y1="272" x2="1252" y2="272" stroke="#1e2530" stroke-width="0.5"/>

  <!-- Day range bar -->
  <rect x="1064" y="276" width="188" height="4" rx="2" fill="#1e2530"/>
  <rect x="1064" y="276" width="140" height="4" rx="2" fill="#22c55e" opacity="0.5"/>
  <circle cx="1204" cy="278" r="5" fill="#22c55e"/>

  <text x="1064" y="305" font-family="Inter, system-ui, sans-serif" font-size="11" fill="#6e7681">52-Week Range</text>
  <text x="1252" y="305" font-family="Inter, system-ui, sans-serif" font-size="11" font-weight="600" fill="#c9d1d9" text-anchor="end">288.77 – 498.83</text>
  <line x1="1064" y1="312" x2="1252" y2="312" stroke="#1e2530" stroke-width="0.5"/>

  <!-- 52w range bar -->
  <rect x="1064" y="316" width="188" height="4" rx="2" fill="#1e2530"/>
  <rect x="1064" y="316" width="105" height="4" rx="2" fill="#22c55e" opacity="0.3"/>
  <circle cx="1169" cy="318" r="5" fill="#22c55e"/>

  <text x="1064" y="346" font-family="Inter, system-ui, sans-serif" font-size="11" fill="#6e7681">Earnings Date</text>
  <text x="1252" y="346" font-family="Inter, system-ui, sans-serif" font-size="11" font-weight="600" fill="#c9d1d9" text-anchor="end">Jul 22, 2026</text>
  <line x1="1064" y1="353" x2="1252" y2="353" stroke="#1e2530" stroke-width="0.5"/>

  <text x="1064" y="371" font-family="Inter, system-ui, sans-serif" font-size="11" fill="#6e7681">1Y Target Est.</text>
  <text x="1252" y="371" font-family="Inter, system-ui, sans-serif" font-size="11" font-weight="600" fill="#22c55e" text-anchor="end">$420.55</text>
  <line x1="1064" y1="378" x2="1252" y2="378" stroke="#1e2530" stroke-width="0.5"/>

  <!-- News button -->
  <rect x="1064" y="388" width="188" height="32" rx="7" fill="#161b22" stroke="#1e2530" stroke-width="1"/>
  <text x="1158" y="408" font-family="Inter, system-ui, sans-serif" font-size="11" fill="#6e7681" text-anchor="middle">📰  Load news (3 months)</text>

  <!-- ─── ALERT RULES PANEL ─── -->
  <rect x="300" y="470" width="736" height="200" rx="10" fill="#0d1117" stroke="#1e2530" stroke-width="1"/>
  <text x="318" y="496" font-family="Inter, system-ui, sans-serif" font-size="11" font-weight="600" fill="#6e7681" letter-spacing="0.8">ALERT RULES — TSLA</text>

  <!-- Rule 1 — active -->
  <rect x="316" y="506" width="220" height="56" rx="7" fill="#161b22" stroke="#f85149" stroke-width="1" stroke-opacity="0.5"/>
  <text x="330" y="524" font-family="Inter, system-ui, sans-serif" font-size="11" font-weight="600" fill="#c9d1d9">Price drops below</text>
  <text x="330" y="542" font-family="Inter, system-ui, sans-serif" font-size="18" font-weight="700" fill="#f0f6fc">$390.00</text>
  <rect x="484" y="511" width="44" height="18" rx="9" fill="#2a1414"/>
  <text x="506" y="524" font-family="Inter, system-ui, sans-serif" font-size="9" font-weight="600" fill="#f85149" text-anchor="middle">ACTIVE</text>

  <!-- Rule 2 -->
  <rect x="552" y="506" width="220" height="56" rx="7" fill="#161b22" stroke="#e3b341" stroke-width="1" stroke-opacity="0.5"/>
  <text x="566" y="524" font-family="Inter, system-ui, sans-serif" font-size="11" font-weight="600" fill="#c9d1d9">Intraday drop exceeds</text>
  <text x="566" y="542" font-family="Inter, system-ui, sans-serif" font-size="18" font-weight="700" fill="#f0f6fc">5.0%</text>
  <rect x="720" y="511" width="44" height="18" rx="9" fill="#2a1a00"/>
  <text x="742" y="524" font-family="Inter, system-ui, sans-serif" font-size="9" font-weight="600" fill="#e3b341" text-anchor="middle">ACTIVE</text>

  <!-- Rule 3 -->
  <rect x="788" y="506" width="220" height="56" rx="7" fill="#161b22" stroke="#1e2530" stroke-width="1"/>
  <text x="802" y="524" font-family="Inter, system-ui, sans-serif" font-size="11" font-weight="600" fill="#c9d1d9">Price rises above</text>
  <text x="802" y="542" font-family="Inter, system-ui, sans-serif" font-size="18" font-weight="700" fill="#f0f6fc">$450.00</text>
  <rect x="956" y="511" width="44" height="18" rx="9" fill="#1e2530"/>
  <text x="978" y="524" font-family="Inter, system-ui, sans-serif" font-size="9" font-weight="600" fill="#6e7681" text-anchor="middle">ACTIVE</text>

  <!-- Add rule -->
  <rect x="316" y="574" width="128" height="32" rx="7" fill="#161b22" stroke="#22c55e" stroke-width="1" stroke-opacity="0.4"/>
  <text x="380" y="594" font-family="Inter, system-ui, sans-serif" font-size="11" fill="#22c55e" text-anchor="middle">+ Add rule</text>

  <!-- Alert history snippet -->
  <text x="568" y="578" font-family="Inter, system-ui, sans-serif" font-size="11" font-weight="600" fill="#6e7681" letter-spacing="0.6">LAST ALERT</text>
  <rect x="562" y="584" width="474" height="26" rx="5" fill="#161b22"/>
  <rect x="562" y="584" width="4" height="26" rx="2" fill="#e3b341"/>
  <text x="576" y="601" font-family="Inter, system-ui, sans-serif" font-size="11" fill="#c9d1d9">NVDA dropped 2.31% · Jun 19, 14:32 · Decision: <tspan fill="#22c55e">Hold</tspan></text>

  <!-- ─── BOTTOM STATUS BAR ─── -->
  <rect x="0" y="692" width="1280" height="28" fill="#0d1117"/>
  <rect y="692" width="1280" height="1" fill="#1e2530"/>
  <circle cx="16" cy="706" r="4" fill="#22c55e"/>
  <text x="28" y="710" font-family="Inter, system-ui, sans-serif" font-size="10" fill="#6e7681">Live · Finnhub WebSocket connected · 4 tickers monitored · Last tick: 16:00:01</text>
  <text x="1252" y="710" font-family="Inter, system-ui, sans-serif" font-size="10" fill="#6e7681" text-anchor="end">v1.0.0</text>
</svg>
